<?xml version="1.0" encoding="UTF-8" standalone="no"?>
<!-- Created with Inkscape (http://www.inkscape.org/) -->

<svg
   width="91.999565mm"
   height="71.880692mm"
   viewBox="0 0 91.999565 71.880692"
   version="1.1"
   id="svg930"
   xml:space="preserve"
   xmlns:inkscape="http://www.inkscape.org/namespaces/inkscape"
   xmlns:sodipodi="http://sodipodi.sourceforge.net/DTD/sodipodi-0.dtd"
   xmlns="http://www.w3.org/2000/svg"
   xmlns:svg="http://www.w3.org/2000/svg"><sodipodi:namedview
     id="namedview932"
     pagecolor="#ffffff"
     bordercolor="#666666"
     borderopacity="1.0"
     inkscape:showpageshadow="2"
     inkscape:pageopacity="0.0"
     inkscape:pagecheckerboard="0"
     inkscape:deskcolor="#d1d1d1"
     inkscape:document-units="mm"
     showgrid="false" /><defs
     id="defs927" /><g
     inkscape:label="圖層 1"
     inkscape:groupmode="layer"
     id="layer1"
     transform="translate(-48.386789,-151.53228)"><path
       style="fill:#502d16;stroke-width:0.135646"
       d="m 48.794792,222.99199 c -0.519999,-0.55666 -0.545956,-1.33767 -0.06059,-1.82304 l 0.332949,-0.33295 5.601574,-0.01 c 3.080865,-0.005 13.636686,-0.0189 23.457382,-0.03 l 17.855808,-0.0203 -0.07008,-0.7729 c -0.0581,-0.6407 -0.01839,-0.85655 0.232149,-1.26193 0.360706,-0.58364 0.898606,-0.88938 1.56468,-0.88938 0.743057,0 1.275935,-0.34374 1.572605,-1.01441 0.281589,-0.63658 0.302892,-1.19282 0.667651,-17.43348 0.21453,-9.55175 0.5039,-16.57743 0.73747,-17.90531 0.11155,-0.63414 0.35987,-1.73288 0.55183,-2.44163 1.19981,-4.42983 1.17765,-4.31449 1.19836,-6.23973 l 0.0197,-1.83122 -1.55993,-0.009 c -1.839609,-0.0106 -2.408546,-0.15097 -3.399544,-0.83915 -0.748335,-0.51966 -1.4952,-1.49932 -2.402812,-3.15176 l -0.444331,-0.80897 0.89795,-1.0296 c 0.739718,-0.84818 0.957638,-1.21328 1.23668,-2.07192 0.569862,-1.75353 1.213704,-2.83035 2.446556,-4.09181 l 1.124351,-1.15044 -0.899425,-2.7833 c -0.494684,-1.53081 -0.923287,-2.82486 -0.952452,-2.87566 -0.02917,-0.0508 0.0027,-0.12679 0.07077,-0.16887 0.06809,-0.0421 0.847353,0.51244 1.731697,1.23226 0.88435,0.71984 2.01993,1.60952 2.52352,1.97707 l 0.91561,0.66829 0.004,1.44732 0.004,1.44731 0.84022,0.63659 c 0.46211,0.35012 0.85798,0.61881 0.87971,0.59709 0.0756,-0.0756 -0.51487,-5.44664 -0.72916,-6.63281 -0.11865,-0.65675 -0.18128,-1.22854 -0.13919,-1.27063 0.0896,-0.0897 4.72248,4.05481 5.72862,5.12472 1.58841,1.68907 2.8207,3.79079 3.57026,6.08919 0.54185,1.66149 0.6557,2.29696 0.9092,5.07473 0.48035,5.2635 1.54816,7.59387 5.56836,12.15234 3.54161,4.0158 5.13885,6.46986 6.6367,10.19683 1.00001,2.48826 1.67676,5.25502 2.18409,8.92929 0.32815,2.3766 0.33022,7.75246 0.004,9.85085 -0.42385,2.72471 -1.19748,5.20944 -2.19826,7.06037 l -0.62988,1.16496 2.2823,-0.0705 c 2.51907,-0.0779 3.16992,-0.21755 4.6729,-1.00291 3.77907,-1.97472 4.96935,-6.79802 2.63446,-10.67546 -0.26302,-0.43678 -1.08276,-1.6576 -1.82163,-2.71292 -2.43813,-3.48232 -2.9368,-4.72296 -2.92485,-7.2768 0.0115,-2.46994 0.57538,-4.11434 2.00338,-5.84287 0.80676,-0.97655 1.75632,-1.6797 2.56093,-1.89636 1.07176,-0.28859 2.18876,0.62217 1.94656,1.58716 -0.0503,0.20031 -0.53732,0.79665 -1.08232,1.32518 -1.13109,1.09693 -1.60159,1.83662 -1.90199,2.99026 -0.60762,2.33341 -0.009,4.18773 2.52422,7.82443 2.17875,3.12732 2.91141,4.84249 3.07764,7.20479 0.25133,3.57164 -0.77212,6.52835 -3.07987,8.89764 -0.6773,0.69536 -2.57035,2.0086 -3.50554,2.43185 l -0.51561,0.23336 2.03469,0.0329 c 1.11908,0.0181 2.17393,0.0655 2.34411,0.10537 0.36146,0.0847 0.84234,0.80663 0.84307,1.26569 2.7e-4,0.18214 -0.19716,0.51644 -0.46069,0.77996 l -0.4612,0.4612 H 93.368147 49.18833 Z m 54.699388,-2.29508 c 0.61501,-0.17082 1.40349,-1.01805 1.59742,-1.71644 0.0969,-0.34891 0.14416,-4.82206 0.14467,-13.68818 6.7e-4,-12.6622 0.0111,-13.21021 0.26825,-14.21579 0.72184,-2.82234 3.08986,-5.44409 5.59457,-6.19402 1.22719,-0.36743 1.6659,-1.02139 1.1027,-1.64372 -0.31955,-0.35309 -0.95152,-0.31107 -2.20579,0.14669 -2.43798,0.88975 -4.40611,2.80582 -5.6521,5.5026 -0.9688,2.09685 -0.91719,1.27015 -0.9995,16.00952 -0.0408,7.31133 -0.12326,13.39157 -0.18317,13.51164 -0.12568,0.25188 -0.52983,0.46836 -1.11189,0.59558 -0.77705,0.16984 -1.06857,0.68598 -0.73718,1.3052 0.26602,0.49707 1.19341,0.66152 2.18202,0.38692 z m 5.17643,-1.88012 c 0.43367,-0.36074 1.04407,-0.73542 1.35646,-0.83264 0.31239,-0.0972 1.47387,-0.21256 2.58106,-0.2563 1.90469,-0.0753 2.02702,-0.0968 2.27208,-0.39977 0.51337,-0.63474 0.17998,-1.2441 -1.0101,-1.84622 -3.62999,-1.83661 -4.88924,-6.53886 -2.66054,-9.93485 0.72009,-1.09723 1.57714,-1.83835 2.83989,-2.45577 1.00293,-0.49038 1.05469,-0.50019 2.78532,-0.52856 0.96987,-0.0159 1.8383,-0.0312 1.92984,-0.0339 0.0915,-0.003 0.26805,-0.16011 0.39227,-0.34968 0.30449,-0.46472 0.10255,-0.89043 -0.57992,-1.22254 -0.69561,-0.33851 -2.86346,-0.34246 -4.116,-0.008 -2.84423,0.76059 -5.31112,3.40318 -6.02862,6.458 -0.61908,2.63576 0.17159,5.64124 2.03261,7.72632 l 0.78204,0.87619 -0.62265,0.15884 c -1.31496,0.33545 -2.37298,1.05691 -2.96604,2.02252 -0.38815,0.63199 -0.31569,1.22397 0.156,1.27449 0.0373,0.004 0.42264,-0.28787 0.8563,-0.6486 z m 3.2648,-22.02956 c 0.24017,-0.24017 0.33022,-0.52494 0.39677,-1.25473 0.10685,-1.17174 0.99463,-3.04882 1.91923,-4.05791 0.33876,-0.36973 0.65165,-0.78474 0.69529,-0.92226 0.0978,-0.30817 -0.24934,-0.86471 -0.61098,-0.97949 -1.26608,-0.40184 -3.80849,3.82567 -3.80849,6.33275 0,1.07616 0.74637,1.54345 1.40818,0.88164 z M 106.017,170.81701 c 0.28995,-0.37958 0.18935,-0.73588 -0.3536,-1.25238 -1.0774,-1.0249 -3.68592,-2.03939 -5.35888,-2.08415 -0.712281,-0.0191 -0.8235,0.0159 -1.065569,0.33545 -0.307537,0.4059 -0.237744,0.85186 0.167236,1.0686 0.140177,0.075 0.706493,0.22281 1.258473,0.32842 1.17503,0.22482 2.23637,0.65058 3.55502,1.42611 0.99889,0.58748 1.45035,0.63217 1.79732,0.17795 z m -3.80475,-6.47809 c 0.66563,-0.46622 0.67589,-1.56044 0.0189,-2.02058 -0.68644,-0.4808 -1.60387,-0.16434 -1.87112,0.64542 -0.366088,1.10927 0.89502,2.04558 1.85218,1.37516 z m -36.180538,54.47911 c -2.511082,-0.0845 -2.513734,-0.0849 -3.458979,-0.54794 -1.785655,-0.87474 -3.273647,-2.81705 -3.60368,-4.70397 -0.251206,-1.43624 0.119957,-2.67804 2.043622,-6.83733 0.50032,-1.08178 0.948354,-2.07443 0.995631,-2.20588 0.08033,-0.22337 0.420005,-0.23669 5.187549,-0.20347 l 5.101592,0.0355 0.603924,1.62776 c 0.332158,0.89526 0.950572,2.63493 1.374254,3.86591 0.695697,2.02132 0.76936,2.34331 0.760308,3.32334 -0.02186,2.36684 -1.499354,4.50749 -3.699501,5.35996 -0.905582,0.35088 -1.855666,0.40212 -5.30472,0.28608 z M 62.01735,214.0146 c 0.168295,-0.12306 0.278189,-0.49062 0.371569,-1.24278 0.243012,-1.95739 1.087272,-3.68567 2.299962,-4.70823 0.713749,-0.60183 0.816788,-0.92658 0.456992,-1.44026 -0.342102,-0.48842 -1.027808,-0.40692 -1.702153,0.20231 -0.678639,0.61311 -1.521123,1.83088 -1.972048,2.8505 -0.472673,1.0688 -0.902285,2.96865 -0.797547,3.52696 0.153994,0.82086 0.798186,1.21004 1.343225,0.8115 z m 20.295464,4.76848 c -3.006188,-0.49223 -5.391542,-3.94245 -4.887437,-7.06929 0.147409,-0.91434 0.319798,-1.57985 0.56219,-2.17034 l 0.153127,-0.37303 h 6.562386 6.562386 v 0.38232 c 0,0.21028 0.10184,0.71387 0.226311,1.11908 0.126109,0.41056 0.231213,1.22741 0.23738,1.8449 0.01233,1.23468 -0.158321,1.60512 -1.004897,2.18129 -0.439746,0.29929 -0.525151,0.3052 -4.406297,0.3052 h -3.957859 l -0.294938,0.31395 c -0.370156,0.39401 -0.376212,0.8256 -0.01663,1.18518 0.270754,0.27075 0.394996,0.27719 4.57806,0.23738 l 4.299754,-0.0409 0.630023,-0.37037 c 1.278347,-0.75149 1.907097,-1.89939 1.989985,-3.63307 0.0476,-0.99558 0.0048,-1.3015 -0.303649,-2.17229 -0.197477,-0.55744 -0.372159,-1.07457 -0.388181,-1.14917 -0.01736,-0.0808 0.376433,-0.13565 0.974527,-0.13565 h 1.003658 l 0.334966,0.8817 c 0.41294,1.08695 0.555623,3.00509 0.303965,4.08635 -0.544611,2.33995 -2.477067,4.23492 -4.687878,4.59695 -0.99415,0.1628 -7.447376,0.14744 -8.470952,-0.0202 z m -26.120209,-1.72812 c -1.05119,-0.64102 -2.236323,-2.59524 -2.592537,-4.27495 -0.786621,-3.70927 1.598732,-7.59161 5.26371,-8.56708 0.400559,-0.10662 0.889137,-0.19457 1.085728,-0.19545 l 0.357438,-0.002 -0.389535,1.11908 c -0.214244,0.6155 -0.390351,1.31006 -0.391349,1.54348 -0.0015,0.34691 -0.07942,0.45654 -0.426903,0.60047 -0.83171,0.34451 -1.704068,1.16875 -2.10179,1.98586 -0.343002,0.7047 -0.38357,0.93253 -0.386379,2.16995 l -0.0031,1.38258 0.784164,1.53381 c 0.46503,0.90959 0.782457,1.70361 0.779966,1.95102 -0.0089,0.88866 -1.085312,1.29805 -1.979376,0.75285 z m 23.016989,-10.22443 c 0.08901,-0.16787 0.579482,-0.92884 1.089942,-1.69106 0.51046,-0.76222 0.928108,-1.41841 0.928108,-1.4582 0,-0.0398 -0.948907,-0.0723 -2.108682,-0.0723 -2.057987,0 -2.116688,-0.008 -2.441632,-0.33295 -0.411045,-0.41104 -0.438732,-1.05338 -0.06166,-1.43046 0.266015,-0.26601 0.452153,-0.27128 9.569225,-0.27128 h 9.297934 l 0.332949,0.33294 c 0.183122,0.18313 0.332951,0.42442 0.332951,0.5362 0,0.32809 -0.290245,0.87072 -0.527047,0.98535 -0.120454,0.0583 -1.068883,0.13797 -2.10762,0.17702 l -1.888612,0.071 1.173805,1.72949 1.173804,1.72949 H 86.51041 79.047759 Z m -17.443247,-5.24805 c -0.369514,-0.77311 -0.37587,-0.81966 -0.157459,-1.15299 l 0.227598,-0.34736 h 3.21289 3.212891 l 1.119188,-0.48071 c 0.615555,-0.26438 1.533678,-0.56853 2.040275,-0.67587 1.085141,-0.22994 3.466206,-0.26294 3.857608,-0.0535 0.254868,0.13639 0.217287,0.19736 -0.549279,0.89106 -0.452576,0.40956 -1.137463,1.16773 -1.521972,1.68481 l -0.699104,0.94015 h -5.178789 -5.178788 z m 19.54462,-2.28032 c -0.304972,-0.47373 -4.830921,-8.6689 -4.830958,-8.74745 -9e-6,-0.0196 4.36524,-0.0196 9.700555,4e-5 l 9.700573,0.0357 -0.291276,0.57472 c -0.272149,0.53697 -2.082855,3.8353 -3.945758,7.18746 l -0.810367,1.45821 h -4.597652 -4.597651 z m -10.935022,-3.32923 -0.339116,-0.17145 -0.03669,-2.73507 c -0.03582,-2.66995 -0.02956,-2.7417 0.262958,-3.01423 0.395313,-0.36829 0.730142,-0.35244 1.136364,0.0538 0.310784,0.31078 0.332951,0.4268 0.332951,1.74257 0,0.77528 -0.03989,1.97163 -0.08865,2.65855 -0.0846,1.19184 -0.105997,1.25791 -0.468026,1.44513 -0.451972,0.23372 -0.382084,0.23191 -0.799783,0.0207 z m -7.315052,-0.3176 c -0.260678,-0.3314 -0.281138,-0.53441 -0.281138,-2.78967 0,-1.33774 0.05943,-2.5433 0.132068,-2.67902 0.256724,-0.4797 1.194978,-0.4505 1.527522,0.0475 0.05481,0.0821 0.100592,1.31483 0.101734,2.73942 0.0019,2.33861 -0.02201,2.61197 -0.245985,2.81466 -0.373904,0.33838 -0.908793,0.28077 -1.234201,-0.13292 z m 3.516957,-2.8981 c -0.254009,-0.25401 -0.271293,-0.45215 -0.271293,-3.11002 v -2.83873 l 0.334595,-0.26319 c 0.405263,-0.31878 0.945245,-0.25086 1.229245,0.1546 0.159585,0.22784 0.199561,0.83118 0.199561,3.01184 0,2.67503 -0.006,2.73253 -0.313946,3.02185 -0.39162,0.36791 -0.825197,0.37661 -1.178162,0.0236 z m 9.029487,-4.37571 c -0.287818,-0.43927 -2.518467,-5.0949 -2.518467,-5.25635 0,-0.074 0.03859,-0.13447 0.08575,-0.13447 0.04716,0 1.287729,0.67145 2.756812,1.49211 1.469084,0.82066 2.74727,1.49211 2.840416,1.49211 0.12979,0 0.159149,-0.47539 0.125671,-2.03488 -0.02403,-1.11919 -0.0045,-2.0348 0.04338,-2.0347 0.04788,1e-4 0.383609,0.26391 0.746054,0.58623 1.182104,1.05126 3.98798,3.34775 4.088099,3.34593 0.05373,-0.001 0.307738,-0.50456 0.564456,-1.11908 0.853817,-2.04382 1.799801,-3.91117 1.956133,-3.86137 0.08491,0.0271 0.64271,1.15745 1.239553,2.51201 0.596844,1.35456 1.11569,2.46396 1.152993,2.46534 0.0373,0.002 1.105517,-0.88119 2.373809,-1.96127 1.268293,-1.08007 2.336507,-1.96472 2.37381,-1.96589 0.0373,-0.001 0.04951,0.95099 0.02713,2.11586 l -0.0407,2.11798 0.447635,-0.27252 c 2.319342,-1.41199 5.229808,-2.95634 5.348258,-2.83789 0.05483,0.0548 -1.973716,4.50014 -2.338983,5.12559 l -0.27084,0.46376 -10.399578,0.0348 -10.399578,0.0348 z M 58.09996,173.60706 c -3.133429,-3.06981 -5.714689,-5.62421 -5.736134,-5.67643 -0.02144,-0.0522 0.890754,-0.91216 2.027106,-1.91095 1.136353,-0.99879 2.649398,-2.33732 3.362324,-2.9745 0.712926,-0.63719 2.24236,-1.97514 3.398744,-2.97323 1.156384,-0.99809 2.391245,-2.09085 2.744136,-2.42835 l 0.641617,-0.61364 1.05465,1.00959 c 0.580057,0.55527 2.438576,2.33926 4.130043,3.96442 l 3.075392,2.95483 -1.194055,1.92843 c -3.419842,5.52315 -4.969545,8.17437 -4.832728,8.26782 0.248,0.16939 2.035964,0.11396 2.691909,-0.0834 0.342234,-0.103 2.110224,-1.07782 3.928866,-2.16628 4.521213,-2.70594 5.081581,-2.93344 7.225406,-2.93344 2.933066,0 5.196142,1.34152 6.440911,3.8181 0.531357,1.05717 0.564581,1.18965 0.517087,2.06173 -0.04453,0.81767 -0.09678,0.97155 -0.425989,1.25473 -0.861229,0.7408 -1.797186,0.20109 -2.193315,-1.26475 -0.213971,-0.79179 -0.357343,-1.03025 -1.015604,-1.68917 -0.633027,-0.63366 -0.926548,-0.81668 -1.686037,-1.05126 -1.137437,-0.35132 -2.172411,-0.36167 -3.098639,-0.031 -0.389814,0.13917 -2.2671,1.19439 -4.171744,2.34491 -2.194271,1.32549 -3.809394,2.20792 -4.408503,2.4086 -1.617892,0.54197 -4.024353,0.51837 -5.506197,-0.054 -0.163895,-0.0633 -0.32852,0.1073 -0.64548,0.66892 -0.234011,0.41465 -0.470733,0.75298 -0.526049,0.75186 -0.05532,-10e-4 -2.664289,-2.51369 -5.797717,-5.58351 z m 35.521083,3.83272 c -0.107695,-0.53848 -0.780938,-1.19578 -1.421288,-1.38763 -0.290043,-0.0869 -0.527351,-0.19971 -0.527351,-0.2507 0,-0.051 0.251624,-0.16809 0.559163,-0.26024 0.709658,-0.21261 1.138325,-0.64128 1.350944,-1.35094 0.204576,-0.68282 0.337633,-0.7087 0.454018,-0.0883 0.121245,0.6463 0.843382,1.38146 1.473009,1.49958 0.596224,0.11185 0.648512,0.27087 0.130519,0.39694 -0.724679,0.17637 -1.368734,0.71662 -1.541418,1.29299 -0.192788,0.64347 -0.367702,0.69779 -0.477596,0.14832 z M 50.280405,165.38754 c -1.358398,-1.43998 -1.994858,-3.16077 -1.810467,-4.89494 0.203698,-1.91576 0.780971,-2.93085 3.104455,-5.459 2.766585,-3.01028 3.846696,-3.60006 6.389408,-3.48885 1.069504,0.0468 1.376961,0.11765 2.140119,0.49335 1.143021,0.56271 2.143825,1.63205 2.531377,2.70472 0.154899,0.42874 0.337944,0.87848 0.406765,0.99944 0.0981,0.17242 -0.03782,0.3629 -0.629123,0.8817 -1.106933,0.97121 -1.992854,1.67604 -2.108728,1.67768 -0.05595,0.001 -0.103075,-0.41058 -0.104713,-0.91417 -0.0035,-1.08258 -0.303303,-1.84565 -0.933357,-2.3758 -0.916071,-0.77083 -2.256233,-0.81757 -3.229359,-0.11264 -0.663637,0.48073 -3.479719,3.46083 -3.994093,4.22671 -1.022071,1.52183 -0.814536,3.3817 0.541223,4.85025 l 0.515271,0.55814 -0.619476,0.58412 c -0.340711,0.32127 -0.778095,0.72195 -0.971965,0.8904 l -0.352491,0.30626 z m 30.675439,0.21783 c -0.0011,-0.63759 -0.476327,-1.16362 -1.28045,-1.41709 -0.738092,-0.23267 -0.987981,-0.45641 -0.516355,-0.46233 0.130559,-0.002 0.492756,-0.11892 0.804881,-0.26063 0.604164,-0.2743 0.992431,-0.83189 0.992431,-1.42523 0,-0.52641 0.242828,-0.41273 0.405021,0.18961 0.183192,0.68033 0.826242,1.32781 1.431482,1.44135 0.607999,0.11406 0.59428,0.24884 -0.04482,0.44033 -0.60369,0.18086 -1.219567,0.77588 -1.364671,1.31844 -0.129162,0.48295 -0.426827,0.60519 -0.427516,0.17555 z m -26.337226,-2.51829 c -0.459677,-0.10549 -0.384621,-0.45489 0.241509,-1.12427 0.688917,-0.73651 1.050554,-0.91638 1.347295,-0.67011 0.336354,0.27915 0.219674,0.63213 -0.379537,1.14816 -0.693695,0.59741 -0.9125,0.71433 -1.209267,0.64622 z m 17.566092,-1.28714 c -0.808308,-0.76252 -2.110578,-2.00407 -2.893935,-2.759 -0.783357,-0.75494 -2.065214,-1.97104 -2.848572,-2.70245 -0.783357,-0.73141 -1.443465,-1.37863 -1.466906,-1.43824 -0.06942,-0.17656 0.918052,-0.32873 2.009491,-0.30968 0.737018,0.0129 1.274093,0.11566 1.949109,0.37303 0.512469,0.19539 0.948222,0.35527 0.96834,0.35527 0.02012,0 0.0755,-0.20745 0.123061,-0.461 0.178549,-0.95176 0.98724,-1.5737 2.046225,-1.5737 2.373551,0 3.090954,3.25121 0.917763,4.15922 l -0.451366,0.1886 0.337898,0.443 c 0.519583,0.68121 0.998653,1.83566 1.146539,2.7629 0.162497,1.01885 0.05212,2.34846 -0.194958,2.34846 -0.09517,0 -0.834381,-0.62388 -1.642689,-1.38641 z"
       id="path1117"
       inkscape:export-filename="icon.svg"
       inkscape:export-xdpi="72"
       inkscape:export-ydpi="72" /></g></svg>
